<?xml version="1.0"?>
<svg width="512" height="512" xmlns="http://www.w3.org/2000/svg" xmlns:svg="http://www.w3.org/2000/svg">
 <!--!Font Awesome Free 6.7.2 by @fontawesome - https://fontawesome.com License - https://fontawesome.com/license/free Copyright 2025 Fonticons, Inc.-->

 <g class="layer">
  <title>Layer 1</title>
  <path d="m272,96c-78.6,0 -145.1,51.5 -167.7,122.5c33.6,-17 71.5,-26.5 111.7,-26.5l88,0c8.8,0 16,7.2 16,16s-7.2,16 -16,16l-16,0l-72,0s0,0 0,0c-16.6,0 -32.7,1.9 -48.3,5.4c-25.9,5.9 -49.9,16.4 -71.4,30.7c0,0 0,0 0,0c-58,38.7 -96.3,104.8 -96.3,179.9l0,16c0,13.3 10.7,24 24,24s24,-10.7 24,-24l0,-16c0,-48.7 20.7,-92.5 53.8,-123.2c19.8,75.5 88.5,131.2 170.2,131.2l1,0c132.1,-0.7 239,-130.9 239,-291.4c0,-42.6 -7.5,-83.1 -21.1,-119.6c-2.6,-6.9 -12.7,-6.6 -16.2,-0.1c-18.8,35.2 -56,59.1 -98.7,59.1l-104,0z" id="svg_1" transform="rotate(180 256 255.962)"/>
 </g>
</svg>